# xmcd
#
# Track frame offsets:
# 182
# 13442
# 33445
# 45690
# 58665
# 70775
# 84345
# 95542
# 114180
# 130192
# 150232
# 160342
# 172887
# 185505
# 196347
# 210325
#
# Disc length: 3013 seconds
#
#
# Revision: 5
# Processed by: cddbd v1.4PL0 Copyright (c) Steve Scherf et al.
# Submitted via: FreeRIP 2.35 
#
DISCID=c90bc310
DTITLE=Elis Regina - Personalidade
DYEAR=1987
DGENRE=Rock
TTITLE0=Casa No Campo
TTITLE1=Dois Prá Lá, Dois Prá Cá 4'26
TTITLE2=Madalena 2'43
TTITLE3=Atrás Da Porta
TTITLE4=Triste
TTITLE5=Aguas De Março
TTITLE6=Mucuripe 2'29
TTITLE7=Romaria 4'08
TTITLE8=Folhas Secas
TTITLE9=Como Nossos Pais 4'27
TTITLE10=Me Deixa Em Paz
TTITLE11=Nada Ser  Como Antes
TTITLE12=E Com Esse Que Eu Vou
TTITLE13=Você
TTITLE14=Fascinação (Fascination) 3'06
TTITLE15=Vou Deitar E Rolar (Quaquaraquaqué) 2'29
EXTD=ID3G:  17  YEAR: 1987
EXTT0=
EXTT1=
EXTT2=
EXTT3=
EXTT4=
EXTT5=
EXTT6=
EXTT7=
EXTT8=
EXTT9=
EXTT10=
EXTT11=
EXTT12=
EXTT13=
EXTT14=
EXTT15=
PLAYORDER=
